<?xml version="1.0" encoding="UTF-8" standalone="no"?>
<!-- Created with Inkscape (http://www.inkscape.org/) -->
<svg
   xmlns:dc="http://purl.org/dc/elements/1.1/"
   xmlns:cc="http://creativecommons.org/ns#"
   xmlns:rdf="http://www.w3.org/1999/02/22-rdf-syntax-ns#"
   xmlns:svg="http://www.w3.org/2000/svg"
   xmlns="http://www.w3.org/2000/svg"
   xmlns:xlink="http://www.w3.org/1999/xlink"
   xmlns:sodipodi="http://sodipodi.sourceforge.net/DTD/sodipodi-0.dtd"
   xmlns:inkscape="http://www.inkscape.org/namespaces/inkscape"
   width="48px"
   height="48px"
   id="svg1325"
   sodipodi:version="0.32"
   inkscape:version="0.46"
   sodipodi:docbase="/home/dobey/Projects/gnome-icon-theme/scalable/places"
   sodipodi:docname="debian-gnome.svg"
   inkscape:output_extension="org.inkscape.output.svg.inkscape">
  <sodipodi:namedview
     inkscape:window-height="945"
     inkscape:window-width="1184"
     inkscape:pageshadow="2"
     inkscape:pageopacity="1"
     guidetolerance="10.0"
     gridtolerance="10.0"
     objecttolerance="10.0"
     borderopacity="1.0"
     bordercolor="#666666"
     pagecolor="#828282"
     id="base"
     inkscape:zoom="4"
     inkscape:cx="31.683332"
     inkscape:cy="20.886975"
     inkscape:window-x="6"
     inkscape:window-y="48"
     inkscape:current-layer="Layer"
     showgrid="false"
     showborder="true"
     showguides="false"
     inkscape:guide-bbox="true"
     inkscape:showpageshadow="false">
    <sodipodi:guide
       orientation="vertical"
       position="0"
       id="guide2983" />
  </sodipodi:namedview>
  <defs
     id="defs1327">
    <inkscape:perspective
       sodipodi:type="inkscape:persp3d"
       inkscape:vp_x="0 : 24 : 1"
       inkscape:vp_y="0 : 1000 : 0"
       inkscape:vp_z="48 : 24 : 1"
       inkscape:persp3d-origin="24 : 16 : 1"
       id="perspective55" />
    <linearGradient
       id="linearGradient2796">
      <stop
         style="stop-color:#2e3436;stop-opacity:1;"
         offset="0"
         id="stop2798" />
      <stop
         style="stop-color:#2e3436;stop-opacity:0;"
         offset="1"
         id="stop2800" />
    </linearGradient>
    <linearGradient
       id="linearGradient3052">
      <stop
         id="stop3054"
         offset="0"
         style="stop-color:#555753;stop-opacity:1" />
      <stop
         id="stop3056"
         offset="1"
         style="stop-color:#2e3436;stop-opacity:1" />
    </linearGradient>
    <linearGradient
       id="linearGradient3013">
      <stop
         style="stop-color:#2d2d2d;stop-opacity:1;"
         offset="0"
         id="stop3015" />
      <stop
         style="stop-color:white;stop-opacity:1"
         offset="1"
         id="stop3017" />
    </linearGradient>
    <radialGradient
       inkscape:collect="always"
       xlink:href="#linearGradient3052"
       id="radialGradient3073"
       gradientUnits="userSpaceOnUse"
       gradientTransform="matrix(2.140448,-1.450766e-6,0,0.93766,-24.37707,2.17114)"
       cx="18.107206"
       cy="8.0827875"
       fx="18.107206"
       fy="8.0827875"
       r="17.994564" />
    <radialGradient
       inkscape:collect="always"
       xlink:href="#linearGradient3052"
       id="radialGradient3076"
       gradientUnits="userSpaceOnUse"
       gradientTransform="matrix(2.140448,-1.450766e-6,0,0.93766,-24.37707,2.17114)"
       cx="14.95366"
       cy="13.681828"
       fx="14.95366"
       fy="13.681828"
       r="17.994564" />
    <radialGradient
       inkscape:collect="always"
       xlink:href="#linearGradient3052"
       id="radialGradient3079"
       gradientUnits="userSpaceOnUse"
       gradientTransform="matrix(2.140448,-1.450766e-6,0,0.93766,-24.37707,2.17114)"
       cx="21.494347"
       cy="4.3500967"
       fx="21.494347"
       fy="4.3500967"
       r="17.994564" />
    <radialGradient
       inkscape:collect="always"
       xlink:href="#linearGradient3052"
       id="radialGradient3082"
       gradientUnits="userSpaceOnUse"
       gradientTransform="matrix(2.140448,-1.450766e-6,0,0.93766,-24.37707,2.17114)"
       cx="25.640675"
       cy="3.6835504"
       fx="25.640675"
       fy="3.6835504"
       r="17.994565" />
    <linearGradient
       inkscape:collect="always"
       xlink:href="#linearGradient2796"
       id="linearGradient2804"
       gradientUnits="userSpaceOnUse"
       x1="33.305901"
       y1="3.7170186"
       x2="33.305901"
       y2="12.644369" />
    <linearGradient
       inkscape:collect="always"
       xlink:href="#linearGradient2796"
       id="linearGradient2806"
       gradientUnits="userSpaceOnUse"
       x1="33.129124"
       y1="12.426562"
       x2="33.129124"
       y2="15.742812" />
    <linearGradient
       inkscape:collect="always"
       xlink:href="#linearGradient3013"
       id="linearGradient2440"
       gradientUnits="userSpaceOnUse"
       x1="35.222755"
       y1="1.5140598"
       x2="35.222755"
       y2="14.403073" />
    <linearGradient
       inkscape:collect="always"
       xlink:href="#linearGradient3013"
       id="linearGradient2444"
       gradientUnits="userSpaceOnUse"
       x1="23.113552"
       y1="3.2925007"
       x2="23.113552"
       y2="12.78336" />
    <linearGradient
       inkscape:collect="always"
       xlink:href="#linearGradient3013"
       id="linearGradient2446"
       gradientUnits="userSpaceOnUse"
       x1="8.3526993"
       y1="11.509477"
       x2="8.3526993"
       y2="19.071247" />
    <linearGradient
       inkscape:collect="always"
       xlink:href="#linearGradient3013"
       id="linearGradient2448"
       gradientUnits="userSpaceOnUse"
       x1="15.202796"
       y1="6.2158523"
       x2="15.202796"
       y2="14.586771" />
    <inkscape:perspective
       id="perspective2524"
       inkscape:persp3d-origin="125 : 96.666667 : 1"
       inkscape:vp_z="250 : 145 : 1"
       inkscape:vp_y="0 : 1000 : 0"
       inkscape:vp_x="0 : 145 : 1"
       sodipodi:type="inkscape:persp3d" />
  </defs>
  <sodipodi:namedview
     id="namedview32"
     pagecolor="#ffffff"
     bordercolor="#666666"
     borderopacity="1.0"
     inkscape:pageopacity="0"
     inkscape:pageshadow="2"
     inkscape:zoom="1"
     inkscape:cx="29.202731"
     inkscape:cy="14.650528"
     inkscape:current-layer="layer1"
     showgrid="false"
     inkscape:grid-bbox="true"
     inkscape:document-units="px"
     stroke="#eeeeec"
     fill="#2e3436"
     inkscape:window-width="1270"
     inkscape:window-height="943"
     inkscape:window-x="0"
     inkscape:window-y="25"
     showborder="false"
     inkscape:grid-points="true"
     showguides="false"
     inkscape:guide-bbox="true"
     inkscape:showpageshadow="false">
    <sodipodi:guide
       orientation="vertical"
       position="31.875"
       id="guide2260" />
    <inkscape:grid
       id="GridFromPre046Settings"
       type="xygrid"
       originx="0px"
       originy="0px"
       spacingx="0.5px"
       spacingy="0.5px"
       color="#0000ff"
       empcolor="#0000ff"
       opacity="0.2"
       empopacity="0.4"
       empspacing="2" />
  </sodipodi:namedview>
  <metadata
     id="metadata1330">
    <rdf:RDF>
      <cc:Work
         rdf:about="">
        <dc:format>image/svg+xml</dc:format>
        <dc:type
           rdf:resource="http://purl.org/dc/dcmitype/StillImage" />
        <dc:title>Piedone</dc:title>
        <dc:creator>
          <cc:Agent>
            <dc:title>Lapo Calamandrei</dc:title>
          </cc:Agent>
        </dc:creator>
        <dc:subject>
          <rdf:Bag />
        </dc:subject>
        <dc:contributor>
          <cc:Agent>
            <dc:title />
          </cc:Agent>
        </dc:contributor>
        <cc:license
           rdf:resource="http://creativecommons.org/licenses/GPL/2.0/" />
      </cc:Work>
      <cc:License
         rdf:about="http://creativecommons.org/licenses/GPL/2.0/">
        <cc:permits
           rdf:resource="http://web.resource.org/cc/Reproduction" />
        <cc:permits
           rdf:resource="http://web.resource.org/cc/Distribution" />
        <cc:requires
           rdf:resource="http://web.resource.org/cc/Notice" />
        <cc:permits
           rdf:resource="http://web.resource.org/cc/DerivativeWorks" />
        <cc:requires
           rdf:resource="http://web.resource.org/cc/ShareAlike" />
        <cc:requires
           rdf:resource="http://web.resource.org/cc/SourceCode" />
      </cc:License>
    </rdf:RDF>
  </metadata>
  <g
     inkscape:groupmode="layer"
     id="layer2"
     inkscape:label="incavo"
     style="display:inline">
    <g
       id="g3045"
       style="opacity:0.5"
       transform="translate(0,1)">
      <path
         d="M 37.84375,0.5625 C 32.937667,0.5625 29.926498,4.1974996 28.9375,7.75 C 28.443001,9.5262502 28.416155,11.31354 28.90625,12.78125 C 29.396345,14.24896 30.61967,15.4375 32.28125,15.4375 C 33.942709,15.4375 35.582624,14.48396 37.125,13.1875 C 38.667376,11.89104 40.09201,10.203617 41.09375,8.46875 C 42.09549,6.7338829 42.728692,4.9559671 42.34375,3.3125 C 42.151279,2.4907665 41.629001,1.7294453 40.84375,1.25 C 40.058499,0.77055466 39.070311,0.5625 37.84375,0.5625 z"
         id="path2997"
         style="opacity:1;fill:none;fill-opacity:1;fill-rule:nonzero;stroke:url(#linearGradient2440);stroke-width:1;stroke-linejoin:round;stroke-miterlimit:4;stroke-dasharray:none;stroke-opacity:1"
         inkscape:original="M 37.84375 1.5 C 28.95865 1.5 27.282885 14.5 32.28125 14.5 C 37.278893 14.5 46.729211 1.5 37.84375 1.5 z "
         inkscape:radius="0.95043164"
         sodipodi:type="inkscape:offset" />
      <path
         d="M 23.5625,2.59375 C 22.04759,2.7779966 20.907689,3.6091831 20.28125,4.6875 C 19.654811,5.7658169 19.475654,7.0365166 19.5625,8.25 C 19.649346,9.4634834 20.008218,10.642553 20.5625,11.59375 C 21.116782,12.544947 21.921418,13.372232 23.0625,13.4375 C 24.308222,13.508783 25.18784,12.604822 25.84375,11.59375 C 26.49966,10.582678 26.978531,9.2903666 27.21875,8 C 27.458969,6.7096334 27.470563,5.3998619 26.9375,4.28125 C 26.404437,3.1626381 25.106931,2.4059809 23.5625,2.59375 z"
         id="path2999"
         style="opacity:1;fill:none;fill-opacity:1;fill-rule:nonzero;stroke:url(#linearGradient2444);stroke-width:1;stroke-linejoin:round;stroke-miterlimit:4;stroke-dasharray:none;stroke-opacity:1"
         inkscape:original="M 23.6875 3.53125 C 18.652699 4.1435932 20.444137 12.346659 23.125 12.5 C 25.804774 12.653342 28.724119 2.9189068 23.6875 3.53125 z "
         inkscape:radius="0.93958104"
         sodipodi:type="inkscape:offset" />
      <path
         d="M 8.84375,10.96875 C 8.2326827,10.94736 7.647776,11.187005 7.125,11.5625 C 6.0807177,12.313036 5.5564729,13.445414 5.53125,14.53125 C 5.5060271,15.617086 5.8804909,16.654222 6.40625,17.5625 C 6.9320091,18.470778 7.6368772,19.239284 8.40625,19.78125 C 9.1756228,20.323216 10.130388,20.72215 11.09375,20.28125 C 12.032054,19.851632 12.291902,18.942072 12.40625,18.0625 C 12.520598,17.182928 12.454069,16.191707 12.25,15.21875 C 12.045931,14.245793 11.705034,13.291412 11.1875,12.5 C 10.669966,11.708588 9.8932255,11.005487 8.84375,10.96875 z"
         id="path3001"
         style="opacity:1;fill:none;fill-opacity:1;fill-rule:nonzero;stroke:url(#linearGradient2446);stroke-width:1;stroke-linejoin:round;stroke-miterlimit:4;stroke-dasharray:none;stroke-opacity:1"
         inkscape:original="M 8.8125 11.9375 C 8.4606561 11.925184 8.0926115 12.05277 7.6875 12.34375 C 4.4480637 14.671966 8.7815845 20.278527 10.6875 19.40625 C 12.355175 18.642678 11.275407 12.023715 8.8125 11.9375 z "
         inkscape:radius="0.97573626"
         sodipodi:type="inkscape:offset" />
      <path
         d="M 15.9375,5.625 C 15.319047,5.4756575 14.662873,5.5627442 14.03125,5.8125 C 12.761729,6.3145115 11.968151,7.3431338 11.6875,8.4375 C 11.406849,9.5318662 11.57594,10.656406 11.9375,11.6875 C 12.29906,12.718594 12.8628,13.66803 13.5625,14.375 C 14.2622,15.08197 15.157389,15.645352 16.21875,15.4375 C 17.244742,15.23705 17.764385,14.361298 18.09375,13.5 C 18.423115,12.638702 18.590593,11.65157 18.59375,10.625 C 18.596907,9.5984297 18.442591,8.5368008 18.0625,7.625 C 17.682409,6.7131992 16.99497,5.8803552 15.9375,5.625 z"
         id="path3003"
         style="opacity:1;fill:none;fill-opacity:1;fill-rule:nonzero;stroke:url(#linearGradient2448);stroke-width:1;stroke-linejoin:round;stroke-miterlimit:4;stroke-dasharray:none;stroke-opacity:1"
         inkscape:original="M 15.71875 6.5625 C 15.339365 6.4708871 14.912003 6.5187657 14.40625 6.71875 C 10.3595 8.3189717 13.764225 14.912713 16.03125 14.46875 C 18.016485 14.080891 18.374445 7.2037903 15.71875 6.5625 z "
         inkscape:radius="0.98042816"
         sodipodi:type="inkscape:offset" />
      <g
         id="Layer"
         transform="matrix(0.1232753,0,0,0.1232753,10.116429,14.725836)">
        <g
           id="g3327"
           transform="matrix(0.9556033,0,0,0.9556033,-7.4725017,-11.78053)">
          <path
             d="M 148.154,152.401 L 147.952,152.401 L 147.775,152.425 L 147.599,152.425 L 147.422,152.45 L 147.271,152.45 L 147.144,152.475 L 147.018,152.499 L 146.917,152.524 L 146.816,152.549 L 146.715,152.574 L 146.665,152.598 L 146.589,152.648 L 146.539,152.673 L 146.514,152.722 L 146.488,152.771 L 146.463,152.796 L 146.463,152.846 L 146.488,152.895 L 146.514,152.945 L 146.539,152.994 L 146.564,153.043 L 146.615,153.093 L 146.69,153.142 L 146.741,153.217 L 146.842,153.266 L 146.917,153.315 L 147.018,153.39 L 147.119,153.439 L 147.245,153.489 L 147.372,153.563 L 147.498,153.612 L 147.624,153.686 L 147.775,153.761 L 147.927,153.81 L 148.103,153.884 L 148.255,153.934 L 148.431,154.008 L 148.608,154.082 L 148.81,154.131 L 148.987,154.206 L 149.189,154.28 L 149.416,154.329 L 149.819,154.478 L 150.274,154.601 L 150.753,154.725 L 151.233,154.849 L 151.737,154.972 L 152.242,155.096 L 152.772,155.195 L 153.302,155.294 L 153.832,155.417 L 154.387,155.491 L 154.942,155.59 C 156.583,154.329 158.046,153.068 159.384,151.832 C 155.699,152.722 151.939,152.747 148.154,152.401 z"
             id="path2904"
             style="fill:#c70036;fill-opacity:1;stroke:#6e001d;stroke-width:2.54663992;stroke-linecap:butt;stroke-linejoin:miter;stroke-miterlimit:4;stroke-dasharray:none;stroke-opacity:1" />
          <path
             d="M 172.506,146.466 L 173.011,145.773 L 173.49,145.081 L 173.945,144.364 L 174.374,143.672 L 174.803,142.93 L 175.206,142.213 L 175.585,141.496 L 175.938,140.754 L 176.266,140.012 L 176.569,139.27 L 176.847,138.504 L 177.124,137.737 L 177.352,136.995 L 177.553,136.229 L 177.705,135.437 L 177.856,134.671 C 177.251,137.613 175.635,140.16 174.096,142.856 C 165.617,148.073 173.289,139.74 174.096,136.575 C 164.961,147.826 172.834,143.325 172.506,146.466 z"
             id="path2906"
             style="fill:#c70036;fill-opacity:1;stroke:#6e001d;stroke-width:2.54663992;stroke-linecap:butt;stroke-linejoin:miter;stroke-miterlimit:4;stroke-dasharray:none;stroke-opacity:1" />
          <path
             d="M 181.49,123.543 L 181.49,123.37 L 181.515,123.172 L 181.515,122.999 L 181.541,122.826 L 181.541,122.653 L 181.541,122.48 L 181.566,122.332 L 181.566,122.159 L 181.566,122.01 L 181.566,121.862 L 181.566,121.713 L 181.566,121.565 L 181.591,121.417 L 181.591,121.293 L 181.591,121.145 L 181.566,121.021 L 181.566,120.897 L 181.566,120.774 L 181.566,120.65 L 181.566,120.526 L 181.566,120.428 L 181.566,120.304 L 181.541,120.205 L 181.541,120.106 L 181.541,119.982 L 181.515,119.884 L 181.515,119.809 L 181.515,119.71 L 181.49,119.612 L 181.49,119.537 L 181.465,119.438 L 181.465,119.364 L 181.44,119.29 L 181.44,119.216 L 181.414,119.142 L 181.414,119.068 L 181.389,119.018 L 181.364,118.944 L 181.364,118.894 L 181.339,118.82 L 181.314,118.771 L 181.314,118.721 L 181.288,118.672 L 181.263,118.622 L 181.238,118.573 L 181.238,118.548 L 181.213,118.499 L 181.187,118.474 L 181.162,118.425 L 181.137,118.4 L 181.086,118.35 L 181.061,118.301 L 181.011,118.252 L 180.96,118.227 L 180.91,118.202 L 180.859,118.202 L 180.809,118.202 L 180.758,118.202 L 180.708,118.227 L 180.632,118.227 L 180.582,118.276 L 180.531,118.301 L 180.481,118.35 L 180.405,118.4 L 180.355,118.449 L 180.304,118.499 L 180.254,118.573 L 180.178,118.647 L 180.127,118.721 L 180.077,118.82 L 180.026,118.894 L 179.951,118.993 L 179.9,119.092 L 179.85,119.191 L 179.799,119.315 L 179.749,119.414 L 179.698,119.537 L 179.623,119.661 L 179.572,119.785 L 179.522,119.908 L 179.497,120.032 L 179.446,120.156 L 179.396,120.304 L 179.345,120.428 L 179.295,120.576 L 179.219,120.848 L 179.143,121.145 C 180.001,121.565 180.683,126.783 181.49,123.543 z"
             id="path2908"
             style="fill:#c70036;fill-opacity:1;stroke:#6e001d;stroke-width:2.54663992;stroke-linecap:butt;stroke-linejoin:miter;stroke-miterlimit:4;stroke-dasharray:none;stroke-opacity:1" />
          <path
             d="M 130.968,14.197 L 131.423,14.271 L 131.877,14.346 L 132.356,14.42 L 132.811,14.494 L 133.013,14.519 L 133.24,14.568 L 133.467,14.593 L 133.669,14.642 L 133.871,14.667 L 134.072,14.717 L 134.249,14.741 L 134.451,14.791 L 134.628,14.815 L 134.779,14.865 L 134.93,14.914 L 135.082,14.939 L 135.233,14.989 L 135.334,15.038 L 135.46,15.063 L 135.561,15.112 L 135.637,15.162 L 135.713,15.211 L 135.738,15.236 L 135.763,15.261 L 135.788,15.285 L 135.814,15.285 L 135.814,15.31 L 135.839,15.335 L 135.839,15.359 L 135.839,15.384 L 135.839,15.434 L 135.839,15.458 L 135.814,15.483 L 135.788,15.508 C 138.463,14.939 139.044,14.42 130.968,14.197 z"
             id="path2910"
             style="fill:#c70036;fill-opacity:1;stroke:#6e001d;stroke-width:2.54663992;stroke-linecap:butt;stroke-linejoin:miter;stroke-miterlimit:4;stroke-dasharray:none;stroke-opacity:1" />
          <path
             d="M 135.788,15.508 L 134.098,15.854 L 135.687,15.706 L 135.788,15.508 z"
             id="polygon2912"
             style="fill:#c70036;fill-opacity:1;stroke:#6e001d;stroke-width:2.54663992;stroke-linecap:butt;stroke-linejoin:miter;stroke-miterlimit:4;stroke-dasharray:none;stroke-opacity:1" />
          <path
             d="M 211.268,126.585 L 211.293,127.252 L 211.293,127.895 L 211.268,128.514 L 211.243,129.132 L 211.218,129.7 L 211.167,130.294 L 211.092,130.838 L 211.016,131.382 L 210.915,131.901 L 210.814,132.445 L 210.713,132.94 L 210.587,133.434 L 210.334,134.423 L 210.032,135.388 L 209.704,136.327 L 209.35,137.292 L 208.972,138.232 L 208.568,139.196 L 208.164,140.185 L 207.76,141.224 L 207.559,141.768 L 207.357,142.312 L 207.155,142.856 L 206.953,143.424 L 203.041,145.353 C 199.836,151.461 203.344,149.211 201.048,154.082 C 196.026,158.459 185.856,167.732 182.601,168.572 C 180.203,168.523 184.19,165.828 184.72,164.764 C 178.033,169.265 179.345,171.54 169.099,174.285 L 168.797,173.617 C 143.511,185.288 108.408,162.193 108.862,130.665 C 108.584,132.668 108.08,132.173 107.525,132.989 C 106.238,116.768 115.171,100.472 130.262,93.845 C 145.025,86.674 162.311,89.617 172.885,99.261 C 167.081,91.818 155.523,83.905 141.82,84.647 C 128.394,84.869 115.852,93.227 111.663,102.277 C 104.799,106.531 103.992,118.622 101.014,120.848 C 96.976,149.878 108.584,162.415 128.218,177.153 C 131.322,179.205 129.076,179.502 129.505,181.06 C 122.994,178.068 117.013,173.543 112.092,168.028 C 114.717,171.738 117.518,175.397 121.152,178.241 C 114.994,176.213 106.767,163.627 104.395,163.132 C 114.994,181.728 147.422,195.748 164.406,188.8 C 156.532,189.072 146.564,188.948 137.732,185.758 C 134.022,183.879 128.975,180.021 129.883,179.304 C 153.05,187.761 176.973,185.709 197.035,169.982 C 202.133,166.075 207.71,159.448 209.325,159.374 C 206.902,162.935 209.729,161.08 207.861,164.245 C 212.934,156.209 205.666,160.956 213.136,150.373 L 215.886,154.082 C 214.852,147.406 224.34,139.32 223.356,128.786 C 225.526,125.546 225.779,132.247 223.482,139.666 C 226.687,131.431 224.34,130.096 225.148,123.321 C 226.031,125.596 227.192,128.019 227.798,130.442 C 225.703,122.48 229.943,117.04 230.977,112.416 C 229.943,111.971 227.772,115.927 227.268,106.531 C 227.343,102.451 228.428,104.404 228.857,103.39 C 228.025,102.945 225.88,99.805 224.567,93.821 C 225.526,92.411 227.091,97.48 228.403,97.678 C 227.57,92.906 226.132,89.271 226.082,85.611 C 222.321,77.921 224.744,86.625 221.691,82.297 C 217.703,70.057 225.022,79.454 225.526,73.89 C 231.583,82.52 235.04,95.873 236.63,101.387 C 235.419,94.661 233.45,88.108 231.053,81.803 C 232.92,82.569 228.1,67.931 233.476,77.624 C 227.722,56.976 208.947,37.689 191.66,28.614 C 193.78,30.518 196.455,32.891 195.496,33.262 C 186.891,28.243 188.405,27.872 187.168,25.745 C 180.178,22.951 179.724,25.968 175.08,25.745 C 161.882,18.896 159.333,19.613 147.195,15.335 L 147.75,17.857 C 138.993,14.989 137.555,18.945 128.092,17.857 C 127.511,17.412 131.12,16.274 134.098,15.854 C 125.644,16.942 126.022,14.222 117.77,16.151 C 119.789,14.741 121.959,13.826 124.13,12.639 C 117.24,13.035 107.676,16.571 110.629,13.357 C 99.3734,18.277 79.412,25.176 68.2074,35.463 L 67.8541,33.163 C 62.706,39.197 45.4449,51.19 44.0822,59.029 L 42.6942,59.35 C 40.0445,63.776 38.3032,68.796 36.1834,73.371 C 32.7009,79.206 31.0606,75.621 31.5653,76.536 C 24.676,90.186 21.2691,101.659 18.3166,111.08 C 20.4364,114.147 18.367,129.602 19.1746,141.965 C 15.7173,203.068 62.9332,262.365 114.515,276.064 C 122.085,278.71 133.315,278.611 142.905,278.883 C 131.599,275.718 130.161,277.201 119.158,273.443 C 111.234,269.783 109.493,265.604 103.865,260.832 L 106.086,264.689 C 95.0834,260.856 99.6762,259.966 90.7176,257.172 L 93.0897,254.13 C 89.5315,253.883 83.6264,248.245 82.0365,245.13 L 78.125,245.278 C 73.4312,239.59 70.9329,235.51 71.1095,232.321 L 69.8477,234.521 C 68.4093,232.123 52.5866,213.255 60.7881,217.657 C 59.274,216.272 57.2299,215.431 55.0344,211.5 L 56.7,209.62 C 52.7632,204.65 49.4321,198.246 49.6845,196.119 C 51.8043,198.913 53.2679,199.433 54.7064,199.903 C 44.713,175.645 44.1579,198.592 36.6124,175.199 L 38.2023,175.076 C 36.9657,173.271 36.2339,171.292 35.2497,169.364 L 35.931,162.564 C 28.7641,154.428 33.9374,127.945 34.9721,113.43 C 35.6787,107.52 40.9782,101.239 44.9906,91.372 L 42.5428,90.952 C 47.2114,82.965 69.2421,58.831 79.4625,60.067 C 84.4087,53.984 78.4783,60.067 77.5194,58.534 C 88.3707,47.506 91.7775,50.745 99.1211,48.767 C 107.02,44.167 92.3327,50.572 96.0675,47.011 C 109.745,43.599 105.758,39.246 123.574,37.516 C 125.467,38.554 119.209,39.123 117.644,40.483 C 129.025,35.018 153.68,36.279 169.68,43.524 C 188.253,52.006 209.123,77.154 209.931,100.818 L 210.864,101.041 C 210.41,110.462 212.353,121.318 208.972,131.308 L 211.268,126.585 z"
             id="path2914"
             style="fill:#c70036;fill-opacity:1;stroke:#6e001d;stroke-width:9.33767986;stroke-linecap:butt;stroke-linejoin:miter;stroke-miterlimit:4;stroke-dasharray:none;stroke-opacity:1" />
          <path
             d="M 98.6668,158.508 L 98.0359,161.624 C 101.014,165.58 103.386,169.883 107.171,172.974 C 104.446,167.756 102.402,165.58 98.6668,158.508 z"
             id="path2916"
             style="fill:#c70036;fill-opacity:1;stroke:#6e001d;stroke-width:2.54663992;stroke-linecap:butt;stroke-linejoin:miter;stroke-miterlimit:4;stroke-dasharray:none;stroke-opacity:1" />
          <path
             d="M 105.708,158.236 L 105.43,157.915 L 105.152,157.569 L 104.9,157.247 L 104.648,156.901 L 104.395,156.53 L 104.168,156.184 L 103.941,155.813 L 103.739,155.467 L 103.537,155.071 L 103.335,154.7 L 102.932,153.958 L 102.553,153.192 L 102.149,152.425 C 103.159,156.035 105.203,159.102 107.096,162.267 L 105.708,158.236 z"
             id="path2918"
             style="fill:#c70036;fill-opacity:1;stroke:#6e001d;stroke-width:2.54663992;stroke-linecap:butt;stroke-linejoin:miter;stroke-miterlimit:4;stroke-dasharray:none;stroke-opacity:1" />
          <path
             d="M 230.372,131.679 L 229.715,133.311 C 228.504,141.817 225.88,150.224 221.817,158.038 C 226.283,149.804 229.16,140.803 230.372,131.679 z"
             id="path2537"
             style="fill:#c70036;fill-opacity:1;stroke:#6e001d;stroke-width:2.54663992;stroke-linecap:butt;stroke-linejoin:miter;stroke-miterlimit:4;stroke-dasharray:none;stroke-opacity:1" />
          <path
             d="M 131.877,12.046 L 132.154,11.947 L 132.457,11.873 L 132.76,11.774 L 133.088,11.7 L 133.391,11.65 L 133.719,11.576 L 134.047,11.527 L 134.375,11.477 L 135.082,11.403 L 135.763,11.329 L 136.47,11.279 L 137.176,11.255 L 138.615,11.156 L 139.321,11.131 L 140.028,11.082 L 140.709,11.007 L 141.391,10.933 L 141.694,10.884 L 142.022,10.834 L 142.35,10.785 L 142.653,10.711 C 138.413,11.082 134.199,11.279 130.035,11.799 L 131.877,12.046 z"
             id="path2539"
             style="fill:#c70036;fill-opacity:1;stroke:#6e001d;stroke-width:2.54663992;stroke-linecap:butt;stroke-linejoin:miter;stroke-miterlimit:4;stroke-dasharray:none;stroke-opacity:1" />
          <path
             d="M 24.2217,68.128 L 24.2469,68.425 L 24.2722,68.722 L 24.2722,69.019 L 24.2722,69.291 L 24.2722,69.563 L 24.2722,69.835 L 24.2469,70.082 L 24.2217,70.354 L 24.1965,70.601 L 24.1712,70.848 L 24.1208,71.071 L 24.0703,71.318 L 24.0198,71.541 L 23.9694,71.739 L 23.9189,71.961 L 23.8432,72.159 L 23.7927,72.357 L 23.717,72.555 L 23.6413,72.728 L 23.5908,72.901 L 23.5151,73.074 L 23.4394,73.247 L 23.3637,73.395 L 23.3132,73.544 L 23.2375,73.692 L 23.1618,73.816 L 23.0861,73.939 L 23.0356,74.063 L 22.9599,74.187 L 22.9095,74.286 L 22.859,74.385 L 22.8085,74.459 L 22.758,74.533 L 22.7076,74.607 L 22.6571,74.681 L 22.6319,74.731 L 22.6066,74.78 L 22.5814,74.83 L 22.5562,74.854 L 22.5562,74.879 L 22.5562,74.904 L 22.5562,74.904 L 22.5562,74.904 L 22.5814,74.904 L 22.6319,74.879 L 22.6571,74.854 L 22.7076,74.805 L 22.7833,74.755 L 22.8338,74.706 L 22.9347,74.657 L 22.9599,74.607 L 23.0104,74.582 L 23.0609,74.533 L 23.1366,74.508 L 23.1871,74.459 L 23.2375,74.409 L 23.3132,74.36 L 23.3637,74.31 L 23.4394,74.261 L 23.5151,74.211 L 23.5908,74.137 L 23.6665,74.088 L 23.7675,74.014 L 23.8432,73.964 L 23.9441,73.89 L 24.0451,73.816 L 24.1208,73.742 L 24.2217,73.667 L 24.3479,73.593 L 24.4488,73.519 L 24.575,73.445 L 24.676,73.371 L 24.8021,73.272 L 24.9283,73.198 L 25.0545,73.099 L 25.1807,73 L 25.3321,72.901 L 25.4835,72.802 C 28.7641,65.507 24.1712,70.799 24.2217,68.128 z"
             id="path2541"
             style="fill:#c70036;fill-opacity:1;stroke:#6e001d;stroke-width:2.54663992;stroke-linecap:butt;stroke-linejoin:miter;stroke-miterlimit:4;stroke-dasharray:none;stroke-opacity:1" />
          <path
             d="M 16.9791,97.802 L 17.1053,97.406 L 17.2314,97.01 L 17.3576,96.64 L 17.4586,96.269 L 17.5595,95.922 L 17.6604,95.576 L 17.7614,95.23 L 17.8371,94.884 L 17.938,94.562 L 18.0137,94.241 L 18.0895,93.944 L 18.1652,93.623 L 18.2156,93.326 L 18.2913,93.029 L 18.4175,92.461 L 18.5185,91.917 L 18.6194,91.397 L 18.7203,90.878 L 18.8213,90.383 L 18.9222,89.889 L 18.9979,89.419 L 19.0989,88.949 L 19.1998,88.479 C 15.2631,93.4 17.3829,94.463 16.9791,97.802 z"
             id="path2543"
             style="fill:#c70036;fill-opacity:1;stroke:#6e001d;stroke-width:2.54663992;stroke-linecap:butt;stroke-linejoin:miter;stroke-miterlimit:4;stroke-dasharray:none;stroke-opacity:1" />
        </g>
      </g>
    </g>
  </g>
  <g
     id="layer1"
     inkscape:label="Layer 1"
     inkscape:groupmode="layer"
     style="display:inline">
    <path
       id="path4490"
       d="M 37.836287,2.5000004 C 28.951188,2.5000004 27.284464,15.500003 32.282829,15.500003 C 37.280472,15.500003 46.721748,2.5000004 37.836287,2.5000004 z "
       style="fill:url(#radialGradient3082);fill-opacity:1;fill-rule:nonzero;stroke:#2e3436;stroke-width:1.00000048;stroke-miterlimit:4;stroke-dasharray:none" />
    <path
       id="path4492"
       d="M 23.118531,13.498207 C 25.798304,13.651549 28.738452,3.9153808 23.701833,4.527724 C 18.667033,5.1400672 20.437668,13.344866 23.118531,13.498207 z "
       style="fill:url(#radialGradient3079);fill-opacity:1;fill-rule:nonzero;stroke:#2e3436;stroke-width:1.00000036;stroke-miterlimit:4;stroke-dasharray:none" />
    <path
       id="path4494"
       d="M 10.673889,20.408945 C 12.579804,19.536291 10.919357,11.000759 7.6784646,13.328597 C 4.4390281,15.656813 8.7679735,21.281222 10.673889,20.408945 z "
       style="fill:url(#radialGradient3076);fill-opacity:1;fill-rule:nonzero;stroke:#2e3436;stroke-width:1;stroke-miterlimit:4;stroke-dasharray:none" />
    <path
       id="path4496"
       d="M 16.043979,15.478633 C 18.31282,15.035365 18.437191,6.1170517 14.391167,7.7169262 C 10.344417,9.3171478 13.776954,15.922596 16.043979,15.478633 L 16.043979,15.478633 z "
       style="fill:url(#radialGradient3073);fill-opacity:1;fill-rule:nonzero;stroke:#2e3436;stroke-width:1;stroke-miterlimit:4;stroke-dasharray:none" />
    <g
       id="g2836"
       style="opacity:0.3;stroke:#2e3436">
      <path
         transform="translate(0,1)"
         d="M 37.84375,2.5 C 33.896305,2.5 31.658583,5.3543541 30.84375,8.28125 C 30.436334,9.7446979 30.431832,11.203417 30.75,12.15625 C 31.068168,13.109083 31.471708,13.5 32.28125,13.5 C 33.090548,13.5 34.492571,12.823247 35.84375,11.6875 C 37.194929,10.551753 38.504459,9.0076497 39.375,7.5 C 40.245541,5.9923503 40.616707,4.5151049 40.4375,3.75 C 40.347896,3.3674476 40.209065,3.160548 39.84375,2.9375 C 39.478435,2.714452 38.830661,2.5 37.84375,2.5 z "
         id="path2920"
         style="opacity:1;fill:none;fill-opacity:1;fill-rule:nonzero;stroke:url(#linearGradient2804);stroke-width:0.99999994;stroke-linejoin:miter;stroke-miterlimit:4;stroke-dasharray:none;stroke-opacity:1;color:black;stroke-linecap:butt;marker:none;marker-start:none;marker-mid:none;marker-end:none;stroke-dashoffset:0;visibility:visible;display:inline;overflow:visible"
         inkscape:original="M 37.84375 1.5 C 28.95865 1.5 27.282885 14.5 32.28125 14.5 C 37.278893 14.5 46.729211 1.5 37.84375 1.5 z "
         inkscape:radius="-1.0151668"
         sodipodi:type="inkscape:offset" />
      <path
         transform="translate(0,1)"
         d="M 23.8125,4.53125 C 22.831737,4.6505324 22.3278,5.0694512 21.96875,5.6875 C 21.6097,6.3055488 21.465329,7.2038998 21.53125,8.125 C 21.597171,9.0461002 21.879196,9.9574168 22.25,10.59375 C 22.620804,11.230083 23.028082,11.459632 23.1875,11.46875 C 23.232836,11.471344 23.70687,11.272131 24.1875,10.53125 C 24.66813,9.7903692 25.119405,8.6934849 25.3125,7.65625 C 25.505595,6.6190151 25.427964,5.6296051 25.1875,5.125 C 24.947036,4.6203949 24.762186,4.4157888 23.8125,4.53125 z "
         id="path2922"
         style="opacity:1;fill:none;fill-opacity:1;fill-rule:nonzero;stroke:url(#linearGradient2804);stroke-width:0.99999994;stroke-linejoin:miter;stroke-miterlimit:4;stroke-dasharray:none;stroke-opacity:1;color:black;stroke-linecap:butt;marker:none;marker-start:none;marker-mid:none;marker-end:none;stroke-dashoffset:0;visibility:visible;display:inline;overflow:visible"
         inkscape:original="M 23.6875 3.53125 C 18.652699 4.1435932 20.444137 12.346659 23.125 12.5 C 25.804774 12.653342 28.724119 2.9189068 23.6875 3.53125 z "
         inkscape:radius="-1.0192616"
         sodipodi:type="inkscape:offset" />
      <path
         transform="translate(0,1)"
         d="M 8.78125,12.9375 C 8.6914294,12.934356 8.5361761,12.950698 8.25,13.15625 C 7.6770962,13.568002 7.5137117,13.972216 7.5,14.5625 C 7.4862883,15.152784 7.7347971,15.919653 8.125,16.59375 C 8.5152029,17.267847 9.0548551,17.851915 9.53125,18.1875 C 10.007645,18.523085 10.296913,18.492831 10.28125,18.5 C 10.171152,18.55041 10.393698,18.389809 10.46875,17.8125 C 10.543802,17.235191 10.508818,16.412009 10.34375,15.625 C 10.178682,14.837991 9.8869629,14.058668 9.5625,13.5625 C 9.2380371,13.066332 8.9585431,12.943706 8.78125,12.9375 z "
         id="path2926"
         style="opacity:1;fill:none;fill-opacity:1;fill-rule:nonzero;stroke:url(#linearGradient2806);stroke-width:0.99999994;stroke-linejoin:miter;stroke-miterlimit:4;stroke-dasharray:none;stroke-opacity:1;color:black;stroke-linecap:butt;marker:none;marker-start:none;marker-mid:none;marker-end:none;stroke-dashoffset:0;visibility:visible;display:inline;overflow:visible"
         inkscape:original="M 8.8125 11.9375 C 8.4606561 11.925184 8.0926115 12.05277 7.6875 12.34375 C 4.4480637 14.671966 8.7815845 20.278527 10.6875 19.40625 C 12.355175 18.642678 11.275407 12.023715 8.8125 11.9375 z "
         inkscape:radius="-0.98627526"
         sodipodi:type="inkscape:offset" />
      <path
         transform="translate(0,1)"
         d="M 15.5,7.5 C 15.359503,7.4660732 15.161228,7.4747497 14.78125,7.625 C 14.027202,7.9231762 13.742067,8.3279067 13.59375,8.90625 C 13.445433,9.4845933 13.514058,10.269275 13.78125,11.03125 C 14.048442,11.793225 14.48758,12.514156 14.9375,12.96875 C 15.38742,13.423344 15.771226,13.514203 15.84375,13.5 C 15.810775,13.506442 16.068097,13.369899 16.28125,12.8125 C 16.494403,12.255101 16.622474,11.415176 16.625,10.59375 C 16.627526,9.7723241 16.487721,8.9765178 16.25,8.40625 C 16.012279,7.8359822 15.770674,7.5653616 15.5,7.5 z "
         id="path2924"
         style="opacity:1;fill:none;fill-opacity:1;fill-rule:nonzero;stroke:url(#linearGradient2804);stroke-width:0.99999994;stroke-linejoin:miter;stroke-miterlimit:4;stroke-dasharray:none;stroke-opacity:1;color:black;stroke-linecap:butt;marker:none;marker-start:none;marker-mid:none;marker-end:none;stroke-dashoffset:0;visibility:visible;display:inline;overflow:visible"
         inkscape:original="M 15.71875 6.5625 C 15.339365 6.4708871 14.912003 6.5187657 14.40625 6.71875 C 10.3595 8.3189717 13.764225 14.912713 16.03125 14.46875 C 18.016485 14.080891 18.374445 7.2037903 15.71875 6.5625 z "
         inkscape:radius="-0.9796893"
         sodipodi:type="inkscape:offset" />
    </g>
  </g>
</svg>
